<svg xmlns="http://www.w3.org/2000/svg" viewBox="0 0 512 512">
  <defs>
    <linearGradient id="bg" x1="0%" x2="100%" y1="0%" y2="100%">
      <stop offset="0%" stop-color="#1276e4" />
      <stop offset="100%" stop-color="#0f89ff" />
    </linearGradient>
    <linearGradient id="accent" x1="0%" x2="100%" y1="0%" y2="100%">
      <stop offset="0%" stop-color="#ff6a00" />
      <stop offset="100%" stop-color="#ffb248" />
    </linearGradient>
  </defs>
  <rect width="512" height="512" fill="url(#bg)" />
  <rect x="72" y="72" width="368" height="368" rx="88" fill="#0c121a" fill-opacity="0.16" />
  <path
    d="M162 136h104c53 0 88 28 88 74 0 28-13 49-36 62 30 12 48 36 48 69 0 53-42 85-106 85H162V136zm88 141c25 0 40-12 40-31s-15-29-40-29h-24v60h24zm10 128c29 0 46-13 46-36 0-22-17-35-46-35h-34v71h34z"
    fill="#ffffff"
  />
  <path
    d="M357 147l20 20-89 89-40-40 20-20 20 20 69-69z"
    fill="url(#accent)"
  />
</svg>
